<svg width="32" height="36" viewBox="0 0 32 36" fill="none" xmlns="http://www.w3.org/2000/svg">
<path d="M30.9999 12.186V23.814C30.9999 25.718 30.0093 27.486 28.4078 28.455L18.6004 34.286C16.9988 35.238 15.0176 35.238 13.3995 34.286L3.59212 28.455C1.99058 27.503 0.999939 25.735 0.999939 23.814V12.186C0.999939 10.282 1.99058 8.51397 3.59212 7.54498L13.3995 1.714C15.001 0.762 16.9823 0.762 18.6004 1.714L28.4078 7.54498C30.0093 8.51397 30.9999 10.265 30.9999 12.186Z" stroke="white" stroke-width="2" stroke-linecap="round" stroke-linejoin="round"/>
<path d="M16.0081 16.3001C18.1327 16.3001 19.8551 14.5267 19.8551 12.3391C19.8551 10.1515 18.1327 8.37817 16.0081 8.37817C13.8834 8.37817 12.1611 10.1515 12.1611 12.3391C12.1611 14.5267 13.8834 16.3001 16.0081 16.3001Z" stroke="white" stroke-width="2" stroke-linecap="round" stroke-linejoin="round"/>
<path d="M22.6125 25.9222C22.6125 22.8622 19.6571 20.3802 16.0082 20.3802C12.3594 20.3802 9.40393 22.8622 9.40393 25.9222" stroke="white" stroke-width="2" stroke-linecap="round" stroke-linejoin="round"/>
</svg>
